<svg xmlns="http://www.w3.org/2000/svg" xmlns:xlink="http://www.w3.org/1999/xlink" width="500" zoomAndPan="magnify" viewBox="0 0 375 374.999991" height="500" preserveAspectRatio="xMidYMid meet" version="1.0"><defs><g/></defs><rect x="-37.5" width="450" fill="#ffffff" y="-37.499999" height="449.999989" fill-opacity="1"/><rect x="-37.5" width="450" fill="#ffffff" y="-37.499999" height="449.999989" fill-opacity="1"/><g fill="#000000" fill-opacity="1"><g transform="translate(71.444831, 256.835729)"><g><path d="M 42.703125 2.421875 C 33.171875 2.421875 24.410156 0.640625 16.421875 -2.921875 C 8.429688 -6.484375 1.882812 -11.550781 -3.21875 -18.125 L 14.90625 -39.890625 C 22.5625 -29.546875 31.289062 -24.375 41.09375 -24.375 C 54.394531 -24.375 61.046875 -32.164062 61.046875 -47.75 L 61.046875 -114.828125 L 11.484375 -114.828125 L 11.484375 -141.015625 L 93.46875 -141.015625 L 93.46875 -49.5625 C 93.46875 -32.226562 89.171875 -19.226562 80.578125 -10.5625 C 71.984375 -1.90625 59.359375 2.421875 42.703125 2.421875 Z M 42.703125 2.421875 "/></g></g></g><g fill="#000000" fill-opacity="1"><g transform="translate(167.314532, 256.835729)"><g><path d="M 84.40625 -49.953125 L 84.40625 0 L 51.78125 0 L 51.78125 -50.359375 L -2.828125 -141.015625 L 31.828125 -141.015625 L 69.5 -78.359375 L 107.171875 -141.015625 L 139.203125 -141.015625 Z M 84.40625 -49.953125 "/></g></g></g></svg>