<svg xmlns="http://www.w3.org/2000/svg" xmlns:xlink="http://www.w3.org/1999/xlink" width="500" zoomAndPan="magnify" viewBox="0 0 375 374.999991" height="500" preserveAspectRatio="xMidYMid meet" version="1.0"><defs><g/></defs><rect x="-37.5" width="450" fill="none" y="-37.499999" height="449.999989" fill-opacity="1"/><rect x="-37.5" width="450" fill="none" y="-37.499999" height="449.999989" fill-opacity="1"/><g fill="#000000" fill-opacity="1"><g transform="translate(71.444831, 256.835729)"><g><path d="M 42.703125 2.421875 C 33.171875 2.421875 24.410156 0.640625 16.421875 -2.921875 C 8.429688 -6.484375 1.882812 -11.550781 -3.21875 -18.125 L 14.90625 -39.890625 C 22.5625 -29.546875 31.289062 -24.375 41.09375 -24.375 C 54.394531 -24.375 61.046875 -32.164062 61.046875 -47.75 L 61.046875 -114.828125 L 11.484375 -114.828125 L 11.484375 -141.015625 L 93.46875 -141.015625 L 93.46875 -49.5625 C 93.46875 -32.226562 89.171875 -19.226562 80.578125 -10.5625 C 71.984375 -1.90625 59.359375 2.421875 42.703125 2.421875 Z M 42.703125 2.421875 "/></g></g></g><g fill="#000000" fill-opacity="1"><g transform="translate(167.314532, 256.835729)"><g><path d="M 84.40625 -49.953125 L 84.40625 0 L 51.78125 0 L 51.78125 -50.359375 L -2.828125 -141.015625 L 31.828125 -141.015625 L 69.5 -78.359375 L 107.171875 -141.015625 L 139.203125 -141.015625 Z M 84.40625 -49.953125 "/></g></g></g><g fill="#000000" fill-opacity="1"><g transform="translate(51.55953, 296.670281)"><g><path d="M 11.96875 0.40625 C 9.988281 0.40625 8.238281 0.128906 6.71875 -0.421875 C 5.207031 -0.972656 3.765625 -1.875 2.390625 -3.125 C 1.828125 -3.613281 1.546875 -4.164062 1.546875 -4.78125 C 1.546875 -5.269531 1.734375 -5.707031 2.109375 -6.09375 C 2.484375 -6.488281 2.929688 -6.6875 3.453125 -6.6875 C 3.910156 -6.6875 4.300781 -6.539062 4.625 -6.25 C 5.707031 -5.25 6.820312 -4.507812 7.96875 -4.03125 C 9.113281 -3.5625 10.414062 -3.328125 11.875 -3.328125 C 13.582031 -3.328125 15.023438 -3.71875 16.203125 -4.5 C 17.378906 -5.28125 17.96875 -6.265625 17.96875 -7.453125 C 17.9375 -8.859375 17.34375 -9.945312 16.1875 -10.71875 C 15.039062 -11.488281 13.296875 -12.132812 10.953125 -12.65625 C 8.160156 -13.21875 6.015625 -14.144531 4.515625 -15.4375 C 3.015625 -16.738281 2.265625 -18.539062 2.265625 -20.84375 C 2.265625 -22.4375 2.679688 -23.832031 3.515625 -25.03125 C 4.359375 -26.238281 5.523438 -27.164062 7.015625 -27.8125 C 8.503906 -28.457031 10.179688 -28.78125 12.046875 -28.78125 C 13.722656 -28.78125 15.300781 -28.507812 16.78125 -27.96875 C 18.269531 -27.4375 19.472656 -26.722656 20.390625 -25.828125 C 21.015625 -25.285156 21.328125 -24.703125 21.328125 -24.078125 C 21.328125 -23.597656 21.144531 -23.164062 20.78125 -22.78125 C 20.414062 -22.40625 19.976562 -22.21875 19.46875 -22.21875 C 19.082031 -22.21875 18.769531 -22.328125 18.53125 -22.546875 C 17.820312 -23.242188 16.847656 -23.835938 15.609375 -24.328125 C 14.367188 -24.816406 13.179688 -25.0625 12.046875 -25.0625 C 10.234375 -25.0625 8.789062 -24.6875 7.71875 -23.9375 C 6.65625 -23.195312 6.125 -22.21875 6.125 -21 C 6.125 -19.675781 6.65625 -18.660156 7.71875 -17.953125 C 8.789062 -17.253906 10.378906 -16.660156 12.484375 -16.171875 C 14.597656 -15.710938 16.320312 -15.171875 17.65625 -14.546875 C 19 -13.929688 20.035156 -13.066406 20.765625 -11.953125 C 21.492188 -10.847656 21.859375 -9.40625 21.859375 -7.625 C 21.859375 -6.050781 21.414062 -4.65625 20.53125 -3.4375 C 19.65625 -2.226562 18.457031 -1.285156 16.9375 -0.609375 C 15.425781 0.0664062 13.769531 0.40625 11.96875 0.40625 Z M 11.96875 0.40625 "/></g></g></g><g fill="#000000" fill-opacity="1"><g transform="translate(94.8498, 296.670281)"><g><path d="M 18.6875 -21.25 C 19.257812 -21.25 19.726562 -21.054688 20.09375 -20.671875 C 20.457031 -20.296875 20.640625 -19.835938 20.640625 -19.296875 L 20.640625 -8.515625 C 20.640625 -5.703125 19.859375 -3.519531 18.296875 -1.96875 C 16.742188 -0.414062 14.550781 0.359375 11.71875 0.359375 C 8.90625 0.359375 6.726562 -0.414062 5.1875 -1.96875 C 3.644531 -3.519531 2.875 -5.703125 2.875 -8.515625 L 2.875 -19.296875 C 2.875 -19.835938 3.054688 -20.296875 3.421875 -20.671875 C 3.785156 -21.054688 4.238281 -21.25 4.78125 -21.25 C 5.351562 -21.25 5.820312 -21.054688 6.1875 -20.671875 C 6.550781 -20.296875 6.734375 -19.835938 6.734375 -19.296875 L 6.734375 -8.515625 C 6.734375 -4.972656 8.394531 -3.203125 11.71875 -3.203125 C 13.363281 -3.203125 14.617188 -3.644531 15.484375 -4.53125 C 16.347656 -5.425781 16.78125 -6.753906 16.78125 -8.515625 L 16.78125 -19.296875 C 16.78125 -19.835938 16.960938 -20.296875 17.328125 -20.671875 C 17.691406 -21.054688 18.144531 -21.25 18.6875 -21.25 Z M 18.6875 -21.25 "/></g></g></g><g fill="#000000" fill-opacity="1"><g transform="translate(138.058988, 296.670281)"><g><path d="M 13.546875 -21.609375 C 15.378906 -21.609375 17.039062 -21.140625 18.53125 -20.203125 C 20.019531 -19.273438 21.1875 -17.972656 22.03125 -16.296875 C 22.882812 -14.617188 23.3125 -12.726562 23.3125 -10.625 C 23.3125 -8.507812 22.882812 -6.617188 22.03125 -4.953125 C 21.1875 -3.296875 20.019531 -1.992188 18.53125 -1.046875 C 17.039062 -0.109375 15.40625 0.359375 13.625 0.359375 C 12.21875 0.359375 10.90625 0.0507812 9.6875 -0.5625 C 8.46875 -1.1875 7.484375 -1.945312 6.734375 -2.84375 L 6.734375 6.15625 C 6.734375 6.695312 6.550781 7.15625 6.1875 7.53125 C 5.820312 7.914062 5.351562 8.109375 4.78125 8.109375 C 4.238281 8.109375 3.785156 7.925781 3.421875 7.5625 C 3.054688 7.195312 2.875 6.726562 2.875 6.15625 L 2.875 -19.34375 C 2.875 -19.90625 3.050781 -20.375 3.40625 -20.75 C 3.757812 -21.132812 4.21875 -21.328125 4.78125 -21.328125 C 5.351562 -21.328125 5.820312 -21.132812 6.1875 -20.75 C 6.550781 -20.375 6.734375 -19.90625 6.734375 -19.34375 L 6.734375 -18.171875 C 7.378906 -19.109375 8.320312 -19.914062 9.5625 -20.59375 C 10.8125 -21.269531 12.140625 -21.609375 13.546875 -21.609375 Z M 13.09375 -3.203125 C 14.34375 -3.203125 15.46875 -3.523438 16.46875 -4.171875 C 17.46875 -4.828125 18.242188 -5.710938 18.796875 -6.828125 C 19.347656 -7.953125 19.625 -9.21875 19.625 -10.625 C 19.625 -12.03125 19.347656 -13.289062 18.796875 -14.40625 C 18.242188 -15.53125 17.46875 -16.414062 16.46875 -17.0625 C 15.46875 -17.71875 14.34375 -18.046875 13.09375 -18.046875 C 11.820312 -18.046875 10.6875 -17.726562 9.6875 -17.09375 C 8.6875 -16.457031 7.910156 -15.570312 7.359375 -14.4375 C 6.804688 -13.300781 6.53125 -12.03125 6.53125 -10.625 C 6.53125 -9.21875 6.804688 -7.945312 7.359375 -6.8125 C 7.910156 -5.675781 8.6875 -4.789062 9.6875 -4.15625 C 10.6875 -3.519531 11.820312 -3.203125 13.09375 -3.203125 Z M 13.09375 -3.203125 "/></g></g></g><g fill="#000000" fill-opacity="1"><g transform="translate(182.64598, 296.670281)"><g><path d="M 13.546875 -21.609375 C 15.378906 -21.609375 17.039062 -21.140625 18.53125 -20.203125 C 20.019531 -19.273438 21.1875 -17.972656 22.03125 -16.296875 C 22.882812 -14.617188 23.3125 -12.726562 23.3125 -10.625 C 23.3125 -8.507812 22.882812 -6.617188 22.03125 -4.953125 C 21.1875 -3.296875 20.019531 -1.992188 18.53125 -1.046875 C 17.039062 -0.109375 15.40625 0.359375 13.625 0.359375 C 12.21875 0.359375 10.90625 0.0507812 9.6875 -0.5625 C 8.46875 -1.1875 7.484375 -1.945312 6.734375 -2.84375 L 6.734375 6.15625 C 6.734375 6.695312 6.550781 7.15625 6.1875 7.53125 C 5.820312 7.914062 5.351562 8.109375 4.78125 8.109375 C 4.238281 8.109375 3.785156 7.925781 3.421875 7.5625 C 3.054688 7.195312 2.875 6.726562 2.875 6.15625 L 2.875 -19.34375 C 2.875 -19.90625 3.050781 -20.375 3.40625 -20.75 C 3.757812 -21.132812 4.21875 -21.328125 4.78125 -21.328125 C 5.351562 -21.328125 5.820312 -21.132812 6.1875 -20.75 C 6.550781 -20.375 6.734375 -19.90625 6.734375 -19.34375 L 6.734375 -18.171875 C 7.378906 -19.109375 8.320312 -19.914062 9.5625 -20.59375 C 10.8125 -21.269531 12.140625 -21.609375 13.546875 -21.609375 Z M 13.09375 -3.203125 C 14.34375 -3.203125 15.46875 -3.523438 16.46875 -4.171875 C 17.46875 -4.828125 18.242188 -5.710938 18.796875 -6.828125 C 19.347656 -7.953125 19.625 -9.21875 19.625 -10.625 C 19.625 -12.03125 19.347656 -13.289062 18.796875 -14.40625 C 18.242188 -15.53125 17.46875 -16.414062 16.46875 -17.0625 C 15.46875 -17.71875 14.34375 -18.046875 13.09375 -18.046875 C 11.820312 -18.046875 10.6875 -17.726562 9.6875 -17.09375 C 8.6875 -16.457031 7.910156 -15.570312 7.359375 -14.4375 C 6.804688 -13.300781 6.53125 -12.03125 6.53125 -10.625 C 6.53125 -9.21875 6.804688 -7.945312 7.359375 -6.8125 C 7.910156 -5.675781 8.6875 -4.789062 9.6875 -4.15625 C 10.6875 -3.519531 11.820312 -3.203125 13.09375 -3.203125 Z M 13.09375 -3.203125 "/></g></g></g><g fill="#000000" fill-opacity="1"><g transform="translate(227.232972, 296.670281)"><g><path d="M 22.984375 -10.625 C 22.984375 -8.507812 22.507812 -6.613281 21.5625 -4.9375 C 20.625 -3.269531 19.335938 -1.960938 17.703125 -1.015625 C 16.066406 -0.0664062 14.257812 0.40625 12.28125 0.40625 C 10.3125 0.40625 8.507812 -0.0664062 6.875 -1.015625 C 5.238281 -1.960938 3.945312 -3.269531 3 -4.9375 C 2.050781 -6.613281 1.578125 -8.507812 1.578125 -10.625 C 1.578125 -12.726562 2.050781 -14.628906 3 -16.328125 C 3.945312 -18.035156 5.238281 -19.363281 6.875 -20.3125 C 8.507812 -21.257812 10.3125 -21.734375 12.28125 -21.734375 C 14.257812 -21.734375 16.066406 -21.257812 17.703125 -20.3125 C 19.335938 -19.363281 20.625 -18.035156 21.5625 -16.328125 C 22.507812 -14.628906 22.984375 -12.726562 22.984375 -10.625 Z M 19.140625 -10.625 C 19.140625 -12.082031 18.832031 -13.382812 18.21875 -14.53125 C 17.613281 -15.6875 16.789062 -16.582031 15.75 -17.21875 C 14.707031 -17.851562 13.550781 -18.171875 12.28125 -18.171875 C 11.007812 -18.171875 9.851562 -17.851562 8.8125 -17.21875 C 7.78125 -16.582031 6.957031 -15.6875 6.34375 -14.53125 C 5.738281 -13.382812 5.4375 -12.082031 5.4375 -10.625 C 5.4375 -9.1875 5.738281 -7.898438 6.34375 -6.765625 C 6.957031 -5.628906 7.78125 -4.742188 8.8125 -4.109375 C 9.851562 -3.472656 11.007812 -3.15625 12.28125 -3.15625 C 13.550781 -3.15625 14.707031 -3.472656 15.75 -4.109375 C 16.789062 -4.742188 17.613281 -5.628906 18.21875 -6.765625 C 18.832031 -7.898438 19.140625 -9.1875 19.140625 -10.625 Z M 19.140625 -10.625 "/></g></g></g><g fill="#000000" fill-opacity="1"><g transform="translate(271.495773, 296.670281)"><g><path d="M 13.46875 -21.734375 C 14.164062 -21.734375 14.769531 -21.550781 15.28125 -21.1875 C 15.800781 -20.820312 16.0625 -20.367188 16.0625 -19.828125 C 16.0625 -19.179688 15.890625 -18.6875 15.546875 -18.34375 C 15.210938 -18.007812 14.800781 -17.84375 14.3125 -17.84375 C 14.070312 -17.84375 13.707031 -17.921875 13.21875 -18.078125 C 12.644531 -18.273438 12.195312 -18.375 11.875 -18.375 C 11.039062 -18.375 10.222656 -18.082031 9.421875 -17.5 C 8.628906 -16.914062 7.984375 -16.113281 7.484375 -15.09375 C 6.984375 -14.082031 6.734375 -12.957031 6.734375 -11.71875 L 6.734375 -1.953125 C 6.734375 -1.410156 6.550781 -0.945312 6.1875 -0.5625 C 5.820312 -0.1875 5.351562 0 4.78125 0 C 4.21875 0 3.757812 -0.179688 3.40625 -0.546875 C 3.050781 -0.910156 2.875 -1.378906 2.875 -1.953125 L 2.875 -19.296875 C 2.875 -19.835938 3.054688 -20.296875 3.421875 -20.671875 C 3.785156 -21.054688 4.238281 -21.25 4.78125 -21.25 C 5.351562 -21.25 5.820312 -21.054688 6.1875 -20.671875 C 6.550781 -20.296875 6.734375 -19.835938 6.734375 -19.296875 L 6.734375 -17.234375 C 7.328125 -18.554688 8.21875 -19.628906 9.40625 -20.453125 C 10.59375 -21.273438 11.945312 -21.703125 13.46875 -21.734375 Z M 13.46875 -21.734375 "/></g></g></g><g fill="#000000" fill-opacity="1"><g transform="translate(307.937719, 296.670281)"><g><path d="M 8.640625 -17.46875 L 8.640625 -5.390625 C 8.640625 -4.035156 9.25 -3.359375 10.46875 -3.359375 C 10.65625 -3.359375 10.910156 -3.40625 11.234375 -3.5 C 11.554688 -3.601562 11.8125 -3.65625 12 -3.65625 C 12.351562 -3.65625 12.648438 -3.503906 12.890625 -3.203125 C 13.140625 -2.898438 13.265625 -2.519531 13.265625 -2.0625 C 13.265625 -1.5 12.9375 -1.015625 12.28125 -0.609375 C 11.632812 -0.203125 10.90625 0 10.09375 0 C 9.207031 0 8.390625 -0.09375 7.640625 -0.28125 C 6.898438 -0.46875 6.238281 -0.945312 5.65625 -1.71875 C 5.070312 -2.488281 4.78125 -3.660156 4.78125 -5.234375 L 4.78125 -17.46875 L 2.4375 -17.46875 C 1.914062 -17.46875 1.488281 -17.632812 1.15625 -17.96875 C 0.820312 -18.3125 0.65625 -18.742188 0.65625 -19.265625 C 0.65625 -19.773438 0.820312 -20.191406 1.15625 -20.515625 C 1.488281 -20.835938 1.914062 -21 2.4375 -21 L 4.78125 -21 L 4.78125 -24.40625 C 4.78125 -24.945312 4.960938 -25.40625 5.328125 -25.78125 C 5.691406 -26.164062 6.160156 -26.359375 6.734375 -26.359375 C 7.273438 -26.359375 7.726562 -26.164062 8.09375 -25.78125 C 8.457031 -25.40625 8.640625 -24.945312 8.640625 -24.40625 L 8.640625 -21 L 12 -21 C 12.507812 -21 12.929688 -20.828125 13.265625 -20.484375 C 13.609375 -20.148438 13.78125 -19.726562 13.78125 -19.21875 C 13.78125 -18.707031 13.609375 -18.285156 13.265625 -17.953125 C 12.929688 -17.628906 12.507812 -17.46875 12 -17.46875 Z M 8.640625 -17.46875 "/></g></g></g><g fill="#000000" fill-opacity="1"><g transform="translate(343.05548, 296.670281)"><g/></g></g></svg>