<svg xmlns="http://www.w3.org/2000/svg" xmlns:xlink="http://www.w3.org/1999/xlink" width="500" zoomAndPan="magnify" viewBox="0 0 375 374.999991" height="500" preserveAspectRatio="xMidYMid meet" version="1.0"><defs><g/></defs><rect x="-37.5" width="450" fill="#ffffff" y="-37.499999" height="449.999989" fill-opacity="1"/><rect x="-37.5" width="450" fill="#f1efe7" y="-37.499999" height="449.999989" fill-opacity="1"/><g fill="#000000" fill-opacity="1"><g transform="translate(157.999023, 202.493526)"><g><path d="M 10.859375 0.609375 C 8.429688 0.609375 6.203125 0.160156 4.171875 -0.734375 C 2.140625 -1.640625 0.476562 -2.929688 -0.8125 -4.609375 L 3.78125 -10.140625 C 5.726562 -7.515625 7.953125 -6.203125 10.453125 -6.203125 C 13.828125 -6.203125 15.515625 -8.179688 15.515625 -12.140625 L 15.515625 -29.1875 L 2.921875 -29.1875 L 2.921875 -35.84375 L 23.765625 -35.84375 L 23.765625 -12.59375 C 23.765625 -8.1875 22.671875 -4.882812 20.484375 -2.6875 C 18.296875 -0.488281 15.085938 0.609375 10.859375 0.609375 Z M 10.859375 0.609375 "/></g></g></g><g fill="#000000" fill-opacity="1"><g transform="translate(182.368897, 202.493526)"><g><path d="M 21.453125 -12.703125 L 21.453125 0 L 13.15625 0 L 13.15625 -12.796875 L -0.71875 -35.84375 L 8.09375 -35.84375 L 17.671875 -19.921875 L 27.234375 -35.84375 L 35.375 -35.84375 Z M 21.453125 -12.703125 "/></g></g></g><g fill="#000000" fill-opacity="1"><g transform="translate(152.944213, 212.619406)"><g><path d="M 3.046875 0.109375 C 2.546875 0.109375 2.101562 0.0390625 1.71875 -0.09375 C 1.332031 -0.238281 0.960938 -0.472656 0.609375 -0.796875 C 0.460938 -0.921875 0.390625 -1.0625 0.390625 -1.21875 C 0.390625 -1.34375 0.4375 -1.453125 0.53125 -1.546875 C 0.632812 -1.648438 0.75 -1.703125 0.875 -1.703125 C 0.988281 -1.703125 1.085938 -1.664062 1.171875 -1.59375 C 1.453125 -1.332031 1.738281 -1.140625 2.03125 -1.015625 C 2.320312 -0.898438 2.648438 -0.84375 3.015625 -0.84375 C 3.453125 -0.84375 3.816406 -0.941406 4.109375 -1.140625 C 4.410156 -1.335938 4.5625 -1.585938 4.5625 -1.890625 C 4.5625 -2.253906 4.414062 -2.53125 4.125 -2.71875 C 3.832031 -2.914062 3.382812 -3.082031 2.78125 -3.21875 C 2.070312 -3.363281 1.523438 -3.597656 1.140625 -3.921875 C 0.765625 -4.253906 0.578125 -4.710938 0.578125 -5.296875 C 0.578125 -5.703125 0.679688 -6.054688 0.890625 -6.359375 C 1.109375 -6.671875 1.40625 -6.910156 1.78125 -7.078125 C 2.15625 -7.242188 2.582031 -7.328125 3.0625 -7.328125 C 3.488281 -7.328125 3.890625 -7.253906 4.265625 -7.109375 C 4.648438 -6.972656 4.957031 -6.789062 5.1875 -6.5625 C 5.34375 -6.425781 5.421875 -6.28125 5.421875 -6.125 C 5.421875 -6 5.375 -5.890625 5.28125 -5.796875 C 5.1875 -5.703125 5.078125 -5.65625 4.953125 -5.65625 C 4.859375 -5.65625 4.78125 -5.679688 4.71875 -5.734375 C 4.53125 -5.910156 4.28125 -6.0625 3.96875 -6.1875 C 3.65625 -6.3125 3.351562 -6.375 3.0625 -6.375 C 2.601562 -6.375 2.238281 -6.28125 1.96875 -6.09375 C 1.695312 -5.90625 1.5625 -5.65625 1.5625 -5.34375 C 1.5625 -5.007812 1.695312 -4.75 1.96875 -4.5625 C 2.238281 -4.382812 2.640625 -4.234375 3.171875 -4.109375 C 3.710938 -3.992188 4.148438 -3.859375 4.484375 -3.703125 C 4.828125 -3.546875 5.09375 -3.328125 5.28125 -3.046875 C 5.46875 -2.765625 5.5625 -2.394531 5.5625 -1.9375 C 5.5625 -1.539062 5.445312 -1.1875 5.21875 -0.875 C 5 -0.5625 4.695312 -0.316406 4.3125 -0.140625 C 3.925781 0.0234375 3.503906 0.109375 3.046875 0.109375 Z M 3.046875 0.109375 "/></g></g></g><g fill="#000000" fill-opacity="1"><g transform="translate(163.948507, 212.619406)"><g><path d="M 4.75 -5.40625 C 4.894531 -5.40625 5.015625 -5.351562 5.109375 -5.25 C 5.203125 -5.15625 5.25 -5.039062 5.25 -4.90625 L 5.25 -2.171875 C 5.25 -1.453125 5.050781 -0.894531 4.65625 -0.5 C 4.257812 -0.101562 3.703125 0.09375 2.984375 0.09375 C 2.265625 0.09375 1.707031 -0.101562 1.3125 -0.5 C 0.925781 -0.894531 0.734375 -1.453125 0.734375 -2.171875 L 0.734375 -4.90625 C 0.734375 -5.039062 0.78125 -5.15625 0.875 -5.25 C 0.96875 -5.351562 1.082031 -5.40625 1.21875 -5.40625 C 1.363281 -5.40625 1.484375 -5.351562 1.578125 -5.25 C 1.671875 -5.15625 1.71875 -5.039062 1.71875 -4.90625 L 1.71875 -2.171875 C 1.71875 -1.265625 2.140625 -0.8125 2.984375 -0.8125 C 3.398438 -0.8125 3.71875 -0.925781 3.9375 -1.15625 C 4.15625 -1.382812 4.265625 -1.722656 4.265625 -2.171875 L 4.265625 -4.90625 C 4.265625 -5.039062 4.3125 -5.15625 4.40625 -5.25 C 4.5 -5.351562 4.613281 -5.40625 4.75 -5.40625 Z M 4.75 -5.40625 "/></g></g></g><g fill="#000000" fill-opacity="1"><g transform="translate(174.932191, 212.619406)"><g><path d="M 3.4375 -5.5 C 3.90625 -5.5 4.328125 -5.378906 4.703125 -5.140625 C 5.085938 -4.898438 5.390625 -4.566406 5.609375 -4.140625 C 5.828125 -3.710938 5.9375 -3.234375 5.9375 -2.703125 C 5.9375 -2.160156 5.828125 -1.675781 5.609375 -1.25 C 5.390625 -0.832031 5.085938 -0.503906 4.703125 -0.265625 C 4.328125 -0.0234375 3.914062 0.09375 3.46875 0.09375 C 3.101562 0.09375 2.765625 0.015625 2.453125 -0.140625 C 2.148438 -0.296875 1.90625 -0.488281 1.71875 -0.71875 L 1.71875 1.5625 C 1.71875 1.707031 1.671875 1.828125 1.578125 1.921875 C 1.484375 2.015625 1.363281 2.0625 1.21875 2.0625 C 1.082031 2.0625 0.96875 2.015625 0.875 1.921875 C 0.78125 1.828125 0.734375 1.707031 0.734375 1.5625 L 0.734375 -4.921875 C 0.734375 -5.066406 0.773438 -5.1875 0.859375 -5.28125 C 0.953125 -5.375 1.070312 -5.421875 1.21875 -5.421875 C 1.363281 -5.421875 1.484375 -5.375 1.578125 -5.28125 C 1.671875 -5.1875 1.71875 -5.066406 1.71875 -4.921875 L 1.71875 -4.625 C 1.875 -4.863281 2.109375 -5.066406 2.421875 -5.234375 C 2.742188 -5.410156 3.082031 -5.5 3.4375 -5.5 Z M 3.328125 -0.8125 C 3.648438 -0.8125 3.9375 -0.894531 4.1875 -1.0625 C 4.4375 -1.226562 4.628906 -1.453125 4.765625 -1.734375 C 4.910156 -2.023438 4.984375 -2.347656 4.984375 -2.703125 C 4.984375 -3.054688 4.910156 -3.375 4.765625 -3.65625 C 4.628906 -3.945312 4.4375 -4.175781 4.1875 -4.34375 C 3.9375 -4.507812 3.648438 -4.59375 3.328125 -4.59375 C 3.003906 -4.59375 2.710938 -4.507812 2.453125 -4.34375 C 2.203125 -4.1875 2.003906 -3.960938 1.859375 -3.671875 C 1.722656 -3.378906 1.65625 -3.054688 1.65625 -2.703125 C 1.65625 -2.347656 1.722656 -2.023438 1.859375 -1.734375 C 2.003906 -1.441406 2.203125 -1.210938 2.453125 -1.046875 C 2.710938 -0.890625 3.003906 -0.8125 3.328125 -0.8125 Z M 3.328125 -0.8125 "/></g></g></g><g fill="#000000" fill-opacity="1"><g transform="translate(186.26611, 212.619406)"><g><path d="M 3.4375 -5.5 C 3.90625 -5.5 4.328125 -5.378906 4.703125 -5.140625 C 5.085938 -4.898438 5.390625 -4.566406 5.609375 -4.140625 C 5.828125 -3.710938 5.9375 -3.234375 5.9375 -2.703125 C 5.9375 -2.160156 5.828125 -1.675781 5.609375 -1.25 C 5.390625 -0.832031 5.085938 -0.503906 4.703125 -0.265625 C 4.328125 -0.0234375 3.914062 0.09375 3.46875 0.09375 C 3.101562 0.09375 2.765625 0.015625 2.453125 -0.140625 C 2.148438 -0.296875 1.90625 -0.488281 1.71875 -0.71875 L 1.71875 1.5625 C 1.71875 1.707031 1.671875 1.828125 1.578125 1.921875 C 1.484375 2.015625 1.363281 2.0625 1.21875 2.0625 C 1.082031 2.0625 0.96875 2.015625 0.875 1.921875 C 0.78125 1.828125 0.734375 1.707031 0.734375 1.5625 L 0.734375 -4.921875 C 0.734375 -5.066406 0.773438 -5.1875 0.859375 -5.28125 C 0.953125 -5.375 1.070312 -5.421875 1.21875 -5.421875 C 1.363281 -5.421875 1.484375 -5.375 1.578125 -5.28125 C 1.671875 -5.1875 1.71875 -5.066406 1.71875 -4.921875 L 1.71875 -4.625 C 1.875 -4.863281 2.109375 -5.066406 2.421875 -5.234375 C 2.742188 -5.410156 3.082031 -5.5 3.4375 -5.5 Z M 3.328125 -0.8125 C 3.648438 -0.8125 3.9375 -0.894531 4.1875 -1.0625 C 4.4375 -1.226562 4.628906 -1.453125 4.765625 -1.734375 C 4.910156 -2.023438 4.984375 -2.347656 4.984375 -2.703125 C 4.984375 -3.054688 4.910156 -3.375 4.765625 -3.65625 C 4.628906 -3.945312 4.4375 -4.175781 4.1875 -4.34375 C 3.9375 -4.507812 3.648438 -4.59375 3.328125 -4.59375 C 3.003906 -4.59375 2.710938 -4.507812 2.453125 -4.34375 C 2.203125 -4.1875 2.003906 -3.960938 1.859375 -3.671875 C 1.722656 -3.378906 1.65625 -3.054688 1.65625 -2.703125 C 1.65625 -2.347656 1.722656 -2.023438 1.859375 -1.734375 C 2.003906 -1.441406 2.203125 -1.210938 2.453125 -1.046875 C 2.710938 -0.890625 3.003906 -0.8125 3.328125 -0.8125 Z M 3.328125 -0.8125 "/></g></g></g><g fill="#000000" fill-opacity="1"><g transform="translate(197.600029, 212.619406)"><g><path d="M 5.84375 -2.703125 C 5.84375 -2.160156 5.722656 -1.675781 5.484375 -1.25 C 5.242188 -0.832031 4.914062 -0.5 4.5 -0.25 C 4.082031 -0.0078125 3.625 0.109375 3.125 0.109375 C 2.625 0.109375 2.164062 -0.0078125 1.75 -0.25 C 1.332031 -0.5 1.003906 -0.832031 0.765625 -1.25 C 0.523438 -1.675781 0.40625 -2.160156 0.40625 -2.703125 C 0.40625 -3.234375 0.523438 -3.71875 0.765625 -4.15625 C 1.003906 -4.59375 1.332031 -4.929688 1.75 -5.171875 C 2.164062 -5.410156 2.625 -5.53125 3.125 -5.53125 C 3.625 -5.53125 4.082031 -5.410156 4.5 -5.171875 C 4.914062 -4.929688 5.242188 -4.59375 5.484375 -4.15625 C 5.722656 -3.71875 5.84375 -3.234375 5.84375 -2.703125 Z M 4.875 -2.703125 C 4.875 -3.078125 4.796875 -3.410156 4.640625 -3.703125 C 4.484375 -3.992188 4.269531 -4.21875 4 -4.375 C 3.738281 -4.539062 3.445312 -4.625 3.125 -4.625 C 2.800781 -4.625 2.503906 -4.539062 2.234375 -4.375 C 1.972656 -4.21875 1.765625 -3.992188 1.609375 -3.703125 C 1.453125 -3.410156 1.375 -3.078125 1.375 -2.703125 C 1.375 -2.335938 1.453125 -2.007812 1.609375 -1.71875 C 1.765625 -1.4375 1.972656 -1.210938 2.234375 -1.046875 C 2.503906 -0.878906 2.800781 -0.796875 3.125 -0.796875 C 3.445312 -0.796875 3.738281 -0.878906 4 -1.046875 C 4.269531 -1.210938 4.484375 -1.4375 4.640625 -1.71875 C 4.796875 -2.007812 4.875 -2.335938 4.875 -2.703125 Z M 4.875 -2.703125 "/></g></g></g><g fill="#000000" fill-opacity="1"><g transform="translate(208.851539, 212.619406)"><g><path d="M 3.421875 -5.53125 C 3.597656 -5.53125 3.75 -5.484375 3.875 -5.390625 C 4.007812 -5.296875 4.078125 -5.179688 4.078125 -5.046875 C 4.078125 -4.878906 4.035156 -4.75 3.953125 -4.65625 C 3.867188 -4.570312 3.765625 -4.53125 3.640625 -4.53125 C 3.578125 -4.53125 3.484375 -4.550781 3.359375 -4.59375 C 3.210938 -4.644531 3.097656 -4.671875 3.015625 -4.671875 C 2.804688 -4.671875 2.597656 -4.597656 2.390625 -4.453125 C 2.191406 -4.304688 2.03125 -4.101562 1.90625 -3.84375 C 1.78125 -3.582031 1.71875 -3.296875 1.71875 -2.984375 L 1.71875 -0.5 C 1.71875 -0.351562 1.671875 -0.234375 1.578125 -0.140625 C 1.484375 -0.046875 1.363281 0 1.21875 0 C 1.070312 0 0.953125 -0.046875 0.859375 -0.140625 C 0.773438 -0.234375 0.734375 -0.351562 0.734375 -0.5 L 0.734375 -4.90625 C 0.734375 -5.039062 0.78125 -5.15625 0.875 -5.25 C 0.96875 -5.351562 1.082031 -5.40625 1.21875 -5.40625 C 1.363281 -5.40625 1.484375 -5.351562 1.578125 -5.25 C 1.671875 -5.15625 1.71875 -5.039062 1.71875 -4.90625 L 1.71875 -4.390625 C 1.863281 -4.722656 2.085938 -4.992188 2.390625 -5.203125 C 2.691406 -5.410156 3.035156 -5.519531 3.421875 -5.53125 Z M 3.421875 -5.53125 "/></g></g></g><g fill="#000000" fill-opacity="1"><g transform="translate(218.115004, 212.619406)"><g><path d="M 2.203125 -4.4375 L 2.203125 -1.375 C 2.203125 -1.03125 2.351562 -0.859375 2.65625 -0.859375 C 2.707031 -0.859375 2.773438 -0.867188 2.859375 -0.890625 C 2.941406 -0.910156 3.003906 -0.921875 3.046875 -0.921875 C 3.140625 -0.921875 3.21875 -0.882812 3.28125 -0.8125 C 3.34375 -0.738281 3.375 -0.644531 3.375 -0.53125 C 3.375 -0.382812 3.289062 -0.257812 3.125 -0.15625 C 2.957031 -0.0507812 2.769531 0 2.5625 0 C 2.34375 0 2.132812 -0.0195312 1.9375 -0.0625 C 1.75 -0.113281 1.582031 -0.238281 1.4375 -0.4375 C 1.289062 -0.632812 1.21875 -0.929688 1.21875 -1.328125 L 1.21875 -4.4375 L 0.625 -4.4375 C 0.488281 -4.4375 0.378906 -4.476562 0.296875 -4.5625 C 0.210938 -4.65625 0.171875 -4.769531 0.171875 -4.90625 C 0.171875 -5.03125 0.210938 -5.132812 0.296875 -5.21875 C 0.378906 -5.300781 0.488281 -5.34375 0.625 -5.34375 L 1.21875 -5.34375 L 1.21875 -6.203125 C 1.21875 -6.347656 1.265625 -6.46875 1.359375 -6.5625 C 1.453125 -6.65625 1.570312 -6.703125 1.71875 -6.703125 C 1.851562 -6.703125 1.96875 -6.65625 2.0625 -6.5625 C 2.15625 -6.46875 2.203125 -6.347656 2.203125 -6.203125 L 2.203125 -5.34375 L 3.046875 -5.34375 C 3.179688 -5.34375 3.289062 -5.296875 3.375 -5.203125 C 3.457031 -5.117188 3.5 -5.015625 3.5 -4.890625 C 3.5 -4.753906 3.457031 -4.644531 3.375 -4.5625 C 3.289062 -4.476562 3.179688 -4.4375 3.046875 -4.4375 Z M 2.203125 -4.4375 "/></g></g></g><g fill="#000000" fill-opacity="1"><g transform="translate(227.041864, 212.619406)"><g/></g></g></svg>